<svg width="32" height="39" viewBox="0 0 32 39" fill="none" xmlns="http://www.w3.org/2000/svg">
<path d="M24.4853 11.5147L19.7707 16.2293M19.7707 23.7707L24.4853 28.4853M12.2293 16.2293L7.51467 11.5147M12.2293 23.7707L7.51467 28.4853M28 20C28 26.623 22.623 32 16 32C9.37702 32 4 26.623 4 20C4 13.377 9.37702 8 16 8C22.623 8 28 13.377 28 20L24.4853 11.5147M17.8187 11.5147C17.8187 14.4582 15.4289 16.848 12.4853 16.848C9.54179 16.848 7.152 14.4582 7.152 11.5147C7.152 8.57112 9.54179 6.18133 12.4853 6.18133C15.4289 6.18133 17.8187 8.57112 17.8187 11.5147V11.5147" stroke="#C9A24D" stroke-width="1.33333" stroke-linecap="round" stroke-linejoin="round"/>
</svg>
