<svg width="32" height="39" viewBox="0 0 32 39" fill="none" xmlns="http://www.w3.org/2000/svg">
<path d="M20 13.3333C21.4718 13.3333 22.6667 14.5282 22.6667 16M28 16C28.0007 18.5339 26.801 20.9183 24.7658 22.4278C22.7306 23.9373 20.1006 24.3934 17.676 23.6573L14.6667 26.6667H12V29.3333H9.33333V32H5.33333C4.59745 32 4 31.4025 4 30.6667V27.2187C4.00008 26.8651 4.1406 26.526 4.39067 26.276L12.3427 18.324C11.4338 15.3195 12.366 12.0611 14.7264 9.99192C17.0868 7.92274 20.4392 7.42515 23.2989 8.71953C26.1585 10.0139 27.997 12.861 28 16L20 13.3333" stroke="#C9A24D" stroke-width="1.33333" stroke-linecap="round" stroke-linejoin="round"/>
</svg>
